{
 "cells": [
  {
   "cell_type": "code",
   "execution_count": 3,
   "id": "b2353c23",
   "metadata": {},
   "outputs": [],
   "source": [
    "import json\n",
    "from PIL import Image, ImageDraw, ImageFont\n",
    "import subprocess\n",
    "import sys\n",
    "\n",
    "import pymongo\n",
    "import os\n",
    "\n",
    "sys.path.append(os.path.abspath(\"..\"))\n",
    "from core.utilities import draw_wrapped_text\n",
    "from PIL import Image, ImageDraw, ImageFont\n",
    "\n",
    "\n",
    "from dotenv import load_dotenv\n",
    "load_dotenv(override=True) \n",
    "\n",
    "db_client = pymongo.MongoClient(os.environ['REMOTE_MONGO_DB'])\n",
    "db = db_client['db_movie'] "
   ]
  },
  {
   "cell_type": "code",
   "execution_count": null,
   "id": "d6ed9edb",
   "metadata": {},
   "outputs": [],
   "source": [
    "PROJECT_FOLDER = '/Users/sangdo/Downloads/movie-top-list/'\n",
    "TRAILER_FOLDER = PROJECT_FOLDER + 'trailers/'\n",
    "BG_FILE = PROJECT_FOLDER + 'timeline_template/timeline_30_items_57600.png'\n",
    "OUTPUT_LONG_VIDEO_FOLDER = PROJECT_FOLDER + 'long_video/'\n",
    "\n",
    "first_video_x = 5\n",
    "firxt_video_y = 5\n",
    "CANVAS_WIDTH = 38700    #length of background image\n",
    "CANVAS_HEIGHT = 1080\n",
    "VIEWPORT_WIDTH = 1920\n",
    "VIEWPORT_HEIGHT = 1080\n",
    "VIDEO_DURATION = 480    #4 minutes\n",
    "BUFFER_END_DURATION = 10    #for the last video to play to the end\n",
    "\n",
    "CLIP_W = 1280\n",
    "CLIP_H = 720\n",
    "#Scrollable distance: 19980 - 1920 = 18060 px\n",
    "#Desired duration: 480\n",
    "#Required speed: 18060 / 480 = 37.625 px/sec\n",
    "SCROLL_SPEED = ((CANVAS_WIDTH - VIEWPORT_WIDTH) / VIDEO_DURATION) * 1  #pixels per sec\n",
    "\n",
    "CARD_W = 1290\n",
    "#define styles of texts\n"
   ]
  },
  {
   "cell_type": "markdown",
   "id": "3e21e255",
   "metadata": {},
   "source": [
    "<h2>Find list of trailers of the actor<h2>"
   ]
  },
  {
   "cell_type": "code",
   "execution_count": 5,
   "id": "5364ab20",
   "metadata": {},
   "outputs": [],
   "source": [
    "def get_trailer_ids(actor_name):\n",
    "    ids = []\n",
    "    tb_paycheck = db['tb_paycheck']\n",
    "    data = tb_paycheck.find({'actor': actor_name}).sort({'year':1}) #.limit(4)\n",
    "\n",
    "    for item in data:\n",
    "        ids.append(item['trailer'])\n",
    "    return ids\n",
    "\n",
    "#\n",
    "# get_trailer_ids('Tom Cruise')"
   ]
  },
  {
   "cell_type": "code",
   "execution_count": 6,
   "id": "ba9d0c79",
   "metadata": {},
   "outputs": [],
   "source": [
    "actor_name = 'Tom Cruise'"
   ]
  },
  {
   "cell_type": "markdown",
   "id": "39fbf00f",
   "metadata": {},
   "source": [
    "<h2>Put a video at position X, Y inside a video</h2>"
   ]
  },
  {
   "cell_type": "code",
   "execution_count": null,
   "id": "51d9dee3",
   "metadata": {},
   "outputs": [
    {
     "name": "stdout",
     "output_type": "stream",
     "text": [
      "Running FFmpeg...\n"
     ]
    },
    {
     "name": "stderr",
     "output_type": "stream",
     "text": [
      "ffmpeg version 8.0.1 Copyright (c) 2000-2025 the FFmpeg developers\n",
      "  built with Apple clang version 17.0.0 (clang-1700.6.3.2)\n",
      "  configuration: --prefix=/opt/homebrew/Cellar/ffmpeg/8.0.1_4 --enable-shared --enable-pthreads --enable-version3 --cc=clang --host-cflags= --host-ldflags= --enable-ffplay --enable-gpl --enable-libsvtav1 --enable-libopus --enable-libx264 --enable-libmp3lame --enable-libdav1d --enable-libvpx --enable-libx265 --enable-openssl --enable-videotoolbox --enable-audiotoolbox --enable-neon\n",
      "  libavutil      60.  8.100 / 60.  8.100\n",
      "  libavcodec     62. 11.100 / 62. 11.100\n",
      "  libavformat    62.  3.100 / 62.  3.100\n",
      "  libavdevice    62.  1.100 / 62.  1.100\n",
      "  libavfilter    11.  4.100 / 11.  4.100\n",
      "  libswscale      9.  1.100 /  9.  1.100\n",
      "  libswresample   6.  1.100 /  6.  1.100\n",
      "Input #0, png_pipe, from '/Users/sangdo/Downloads/movie-top-list/timeline_template/timeline_30_items.png':\n",
      "  Duration: N/A, bitrate: N/A\n",
      "  Stream #0:0: Video: png, rgba(pc, gbr/unknown/unknown), 19980x1080, 25 fps, 25 tbr, 25 tbn\n",
      "Input #1, mov,mp4,m4a,3gp,3g2,mj2, from '/Users/sangdo/Downloads/movie-top-list/trailers/tom_cruise/iIaAL7JTEgE.mp4':\n",
      "  Metadata:\n",
      "    major_brand     : isom\n",
      "    minor_version   : 512\n",
      "    compatible_brands: isomiso2avc1mp41\n",
      "    encoder         : Lavf62.3.100\n",
      "  Duration: 00:00:20.02, start: 0.041000, bitrate: 985 kb/s\n",
      "  Stream #1:0[0x1](und): Video: h264 (High) (avc1 / 0x31637661), yuv420p(tv, bt709, progressive), 1280x720 [SAR 1:1 DAR 16:9], 983 kb/s, 23.98 fps, 23.98 tbr, 24k tbn, start 0.041000 (default)\n",
      "    Metadata:\n",
      "      handler_name    : ISO Media file produced by Google Inc.\n",
      "      vendor_id       : [0][0][0][0]\n",
      "      encoder         : Lavc62.11.100 libx264\n",
      "Input #2, mov,mp4,m4a,3gp,3g2,mj2, from '/Users/sangdo/Downloads/movie-top-list/trailers/tom_cruise/ecBD3dRnho8.mp4':\n",
      "  Metadata:\n",
      "    major_brand     : isom\n",
      "    minor_version   : 512\n",
      "    compatible_brands: isomiso2avc1mp41\n",
      "    encoder         : Lavf62.3.100\n",
      "  Duration: 00:00:20.02, start: 0.041000, bitrate: 1101 kb/s\n",
      "  Stream #2:0[0x1](und): Video: h264 (High) (avc1 / 0x31637661), yuv420p(tv, bt709, progressive), 1280x720 [SAR 1:1 DAR 16:9], 1098 kb/s, 23.98 fps, 23.98 tbr, 24k tbn, start 0.041000 (default)\n",
      "    Metadata:\n",
      "      handler_name    : ISO Media file produced by Google Inc.\n",
      "      vendor_id       : [0][0][0][0]\n",
      "      encoder         : Lavc62.11.100 libx264\n",
      "Input #3, mov,mp4,m4a,3gp,3g2,mj2, from '/Users/sangdo/Downloads/movie-top-list/trailers/tom_cruise/sCmYN6TLd8A.mp4':\n",
      "  Metadata:\n",
      "    major_brand     : isom\n",
      "    minor_version   : 512\n",
      "    compatible_brands: isomiso2avc1mp41\n",
      "    encoder         : Lavf62.3.100\n",
      "  Duration: 00:00:20.02, start: 0.041000, bitrate: 757 kb/s\n",
      "  Stream #3:0[0x1](und): Video: h264 (High) (avc1 / 0x31637661), yuv420p(tv, bt709, progressive), 1280x720 [SAR 1:1 DAR 16:9], 754 kb/s, 23.98 fps, 23.98 tbr, 24k tbn, start 0.041000 (default)\n",
      "    Metadata:\n",
      "      handler_name    : ISO Media file produced by Google Inc.\n",
      "      vendor_id       : [0][0][0][0]\n",
      "      encoder         : Lavc62.11.100 libx264\n",
      "Input #4, mov,mp4,m4a,3gp,3g2,mj2, from '/Users/sangdo/Downloads/movie-top-list/trailers/tom_cruise/L8Pbjh4EZRk.mp4':\n",
      "  Metadata:\n",
      "    major_brand     : isom\n",
      "    minor_version   : 512\n",
      "    compatible_brands: isomiso2avc1mp41\n",
      "    encoder         : Lavf62.3.100\n",
      "  Duration: 00:00:20.02, start: 0.041000, bitrate: 1050 kb/s\n",
      "  Stream #4:0[0x1](und): Video: h264 (High) (avc1 / 0x31637661), yuv420p(tv, bt709, progressive), 1280x720 [SAR 1:1 DAR 16:9], 1047 kb/s, 23.98 fps, 23.98 tbr, 24k tbn, start 0.041000 (default)\n",
      "    Metadata:\n",
      "      handler_name    : ISO Media file produced by Google Inc.\n",
      "      vendor_id       : [0][0][0][0]\n",
      "      encoder         : Lavc62.11.100 libx264\n",
      "Input #5, mov,mp4,m4a,3gp,3g2,mj2, from '/Users/sangdo/Downloads/movie-top-list/trailers/tom_cruise/KUd3gwaf0KQ.mp4':\n",
      "  Metadata:\n",
      "    major_brand     : isom\n",
      "    minor_version   : 512\n",
      "    compatible_brands: isomiso2avc1mp41\n",
      "    encoder         : Lavf62.3.100\n",
      "  Duration: 00:00:20.02, start: 0.000000, bitrate: 965 kb/s\n",
      "  Stream #5:0[0x1](und): Video: h264 (High) (avc1 / 0x31637661), yuv420p(tv, bt709, progressive), 1280x720 [SAR 1:1 DAR 16:9], 962 kb/s, 29.97 fps, 29.97 tbr, 30k tbn (default)\n",
      "    Metadata:\n",
      "      handler_name    : ISO Media file produced by Google Inc.\n",
      "      vendor_id       : [0][0][0][0]\n",
      "      encoder         : Lavc62.11.100 libx264\n",
      "Input #6, mov,mp4,m4a,3gp,3g2,mj2, from '/Users/sangdo/Downloads/movie-top-list/trailers/tom_cruise/xgVo96JaqeM.mp4':\n",
      "  Metadata:\n",
      "    major_brand     : isom\n",
      "    minor_version   : 512\n",
      "    compatible_brands: isomiso2avc1mp41\n",
      "    encoder         : Lavf62.3.100\n",
      "  Duration: 00:00:18.00, start: 0.000000, bitrate: 609 kb/s\n",
      "  Stream #6:0[0x1](und): Video: h264 (High) (avc1 / 0x31637661), yuv420p(tv, bt709, progressive), 1280x720 [SAR 1:1 DAR 16:9], 606 kb/s, 25 fps, 25 tbr, 12800 tbn (default)\n",
      "    Metadata:\n",
      "      handler_name    : ISO Media file produced by Google Inc.\n",
      "      vendor_id       : [0][0][0][0]\n",
      "      encoder         : Lavc62.11.100 libx264\n",
      "Input #7, mov,mp4,m4a,3gp,3g2,mj2, from '/Users/sangdo/Downloads/movie-top-list/trailers/tom_cruise/KnamcFv_N9Q.mp4':\n",
      "  Metadata:\n",
      "    major_brand     : isom\n",
      "    minor_version   : 512\n",
      "    compatible_brands: isomiso2avc1mp41\n",
      "    encoder         : Lavf62.3.100\n",
      "  Duration: 00:00:20.02, start: 0.041000, bitrate: 809 kb/s\n",
      "  Stream #7:0[0x1](und): Video: h264 (High) (avc1 / 0x31637661), yuv420p(tv, bt709, progressive), 1280x720 [SAR 1:1 DAR 16:9], 807 kb/s, 23.98 fps, 23.98 tbr, 24k tbn, start 0.041000 (default)\n",
      "    Metadata:\n",
      "      handler_name    : ISO Media file produced by Google Inc.\n",
      "      vendor_id       : [0][0][0][0]\n",
      "      encoder         : Lavc62.11.100 libx264\n",
      "Input #8, mov,mp4,m4a,3gp,3g2,mj2, from '/Users/sangdo/Downloads/movie-top-list/trailers/tom_cruise/hSPtsCQq52k.mp4':\n",
      "  Metadata:\n",
      "    major_brand     : isom\n",
      "    minor_version   : 512\n",
      "    compatible_brands: isomiso2avc1mp41\n",
      "    encoder         : Lavf62.3.100\n",
      "  Duration: 00:00:20.02, start: 0.041000, bitrate: 1225 kb/s\n",
      "  Stream #8:0[0x1](und): Video: h264 (High) (avc1 / 0x31637661), yuv420p(tv, bt709, progressive), 1280x720 [SAR 1:1 DAR 16:9], 1222 kb/s, 23.98 fps, 23.98 tbr, 24k tbn, start 0.041000 (default)\n",
      "    Metadata:\n",
      "      handler_name    : ISO Media file produced by Google Inc.\n",
      "      vendor_id       : [0][0][0][0]\n",
      "      encoder         : Lavc62.11.100 libx264\n",
      "Input #9, mov,mp4,m4a,3gp,3g2,mj2, from '/Users/sangdo/Downloads/movie-top-list/trailers/tom_cruise/k09OX40NLUw.mp4':\n",
      "  Metadata:\n",
      "    major_brand     : isom\n",
      "    minor_version   : 512\n",
      "    compatible_brands: isomiso2avc1mp41\n",
      "    encoder         : Lavf62.3.100\n",
      "  Duration: 00:00:20.02, start: 0.041000, bitrate: 623 kb/s\n",
      "  Stream #9:0[0x1](und): Video: h264 (High) (avc1 / 0x31637661), yuv420p(tv, bt709, progressive), 1280x720 [SAR 1:1 DAR 16:9], 621 kb/s, 23.98 fps, 23.98 tbr, 24k tbn, start 0.041000 (default)\n",
      "    Metadata:\n",
      "      handler_name    : ISO Media file produced by Google Inc.\n",
      "      vendor_id       : [0][0][0][0]\n",
      "      encoder         : Lavc62.11.100 libx264\n",
      "Input #10, mov,mp4,m4a,3gp,3g2,mj2, from '/Users/sangdo/Downloads/movie-top-list/trailers/tom_cruise/lG7DGMgfOb8.mp4':\n",
      "  Metadata:\n",
      "    major_brand     : isom\n",
      "    minor_version   : 512\n",
      "    compatible_brands: isomiso2avc1mp41\n",
      "    encoder         : Lavf62.3.100\n",
      "  Duration: 00:00:20.02, start: 0.041000, bitrate: 1171 kb/s\n",
      "  Stream #10:0[0x1](und): Video: h264 (High) (avc1 / 0x31637661), yuv420p(tv, bt709, progressive), 1280x720 [SAR 1:1 DAR 16:9], 1168 kb/s, 23.98 fps, 23.98 tbr, 24k tbn, start 0.041000 (default)\n",
      "    Metadata:\n",
      "      handler_name    : ISO Media file produced by Google Inc.\n",
      "      vendor_id       : [0][0][0][0]\n",
      "      encoder         : Lavc62.11.100 libx264\n",
      "Input #11, mov,mp4,m4a,3gp,3g2,mj2, from '/Users/sangdo/Downloads/movie-top-list/trailers/tom_cruise/T50_qHEOahQ.mp4':\n",
      "  Metadata:\n",
      "    major_brand     : isom\n",
      "    minor_version   : 512\n",
      "    compatible_brands: isomiso2avc1mp41\n",
      "    encoder         : Lavf62.3.100\n",
      "  Duration: 00:00:20.00, start: 0.000000, bitrate: 651 kb/s\n",
      "  Stream #11:0[0x1](und): Video: h264 (High) (avc1 / 0x31637661), yuv420p(tv, bt709, progressive), 1280x720 [SAR 1:1 DAR 16:9], 649 kb/s, 24 fps, 24 tbr, 12288 tbn (default)\n",
      "    Metadata:\n",
      "      handler_name    : ISO Media file produced by Google Inc.\n",
      "      vendor_id       : [0][0][0][0]\n",
      "      encoder         : Lavc62.11.100 libx264\n",
      "Input #12, mov,mp4,m4a,3gp,3g2,mj2, from '/Users/sangdo/Downloads/movie-top-list/trailers/tom_cruise/MPr0OyV9_c0.mp4':\n",
      "  Metadata:\n",
      "    major_brand     : isom\n",
      "    minor_version   : 512\n",
      "    compatible_brands: isomiso2avc1mp41\n",
      "    encoder         : Lavf62.3.100\n",
      "  Duration: 00:00:20.00, start: 0.000000, bitrate: 1037 kb/s\n",
      "  Stream #12:0[0x1](und): Video: h264 (High) (avc1 / 0x31637661), yuv420p(tv, bt709, progressive), 1280x720 [SAR 1:1 DAR 16:9], 1035 kb/s, 25 fps, 25 tbr, 12800 tbn (default)\n",
      "    Metadata:\n",
      "      handler_name    : ISO Media file produced by Google Inc.\n",
      "      vendor_id       : [0][0][0][0]\n",
      "      encoder         : Lavc62.11.100 libx264\n",
      "Input #13, mov,mp4,m4a,3gp,3g2,mj2, from '/Users/sangdo/Downloads/movie-top-list/trailers/tom_cruise/jaasIlkad1Q.mp4':\n",
      "  Metadata:\n",
      "    major_brand     : isom\n",
      "    minor_version   : 512\n",
      "    compatible_brands: isomiso2avc1mp41\n",
      "    encoder         : Lavf62.3.100\n",
      "  Duration: 00:00:20.02, start: 0.041000, bitrate: 1617 kb/s\n",
      "  Stream #13:0[0x1](und): Video: h264 (High) (avc1 / 0x31637661), yuv420p(tv, bt709, progressive), 1280x720 [SAR 1:1 DAR 16:9], 1614 kb/s, 23.98 fps, 23.98 tbr, 24k tbn, start 0.041000 (default)\n",
      "    Metadata:\n",
      "      handler_name    : ISO Media file produced by Google Inc.\n",
      "      vendor_id       : [0][0][0][0]\n",
      "      encoder         : Lavc62.11.100 libx264\n",
      "Input #14, mov,mp4,m4a,3gp,3g2,mj2, from '/Users/sangdo/Downloads/movie-top-list/trailers/tom_cruise/4oVva0muTE8.mp4':\n",
      "  Metadata:\n",
      "    major_brand     : isom\n",
      "    minor_version   : 512\n",
      "    compatible_brands: isomiso2avc1mp41\n",
      "    encoder         : Lavf62.3.100\n",
      "  Duration: 00:00:20.02, start: 0.041000, bitrate: 1826 kb/s\n",
      "  Stream #14:0[0x1](und): Video: h264 (High) (avc1 / 0x31637661), yuv420p(tv, bt709, progressive), 1280x720 [SAR 1:1 DAR 16:9], 1823 kb/s, 23.98 fps, 23.98 tbr, 24k tbn, start 0.041000 (default)\n",
      "    Metadata:\n",
      "      handler_name    : ISO Media file produced by Google Inc.\n",
      "      vendor_id       : [0][0][0][0]\n",
      "      encoder         : Lavc62.11.100 libx264\n",
      "Input #15, mov,mp4,m4a,3gp,3g2,mj2, from '/Users/sangdo/Downloads/movie-top-list/trailers/tom_cruise/0n02lrQ_5Vo.mp4':\n",
      "  Metadata:\n",
      "    major_brand     : isom\n",
      "    minor_version   : 512\n",
      "    compatible_brands: isomiso2avc1mp41\n",
      "    encoder         : Lavf62.3.100\n",
      "  Duration: 00:00:20.02, start: 0.041000, bitrate: 858 kb/s\n",
      "  Stream #15:0[0x1](und): Video: h264 (High) (avc1 / 0x31637661), yuv420p(tv, bt709, progressive), 1280x534 [SAR 1:1 DAR 640:267], 856 kb/s, 23.98 fps, 23.98 tbr, 24k tbn, start 0.041000 (default)\n",
      "    Metadata:\n",
      "      handler_name    : ISO Media file produced by Google Inc.\n",
      "      vendor_id       : [0][0][0][0]\n",
      "      encoder         : Lavc62.11.100 libx264\n",
      "Input #16, mov,mp4,m4a,3gp,3g2,mj2, from '/Users/sangdo/Downloads/movie-top-list/trailers/tom_cruise/bWWMMyDtMoQ.mp4':\n",
      "  Metadata:\n",
      "    major_brand     : isom\n",
      "    minor_version   : 512\n",
      "    compatible_brands: isomiso2avc1mp41\n",
      "    encoder         : Lavf62.3.100\n",
      "  Duration: 00:00:20.02, start: 0.041000, bitrate: 1129 kb/s\n",
      "  Stream #16:0[0x1](und): Video: h264 (High) (avc1 / 0x31637661), yuv420p(tv, bt709, progressive), 1280x720 [SAR 1:1 DAR 16:9], 1126 kb/s, 23.98 fps, 23.98 tbr, 24k tbn, start 0.041000 (default)\n",
      "    Metadata:\n",
      "      handler_name    : ISO Media file produced by Google Inc.\n",
      "      vendor_id       : [0][0][0][0]\n",
      "      encoder         : Lavc62.11.100 libx264\n",
      "Input #17, mov,mp4,m4a,3gp,3g2,mj2, from '/Users/sangdo/Downloads/movie-top-list/trailers/tom_cruise/-9LyQxKVJO4.mp4':\n",
      "  Metadata:\n",
      "    major_brand     : isom\n",
      "    minor_version   : 512\n",
      "    compatible_brands: isomiso2avc1mp41\n",
      "    encoder         : Lavf62.3.100\n",
      "  Duration: 00:00:20.02, start: 0.041000, bitrate: 1106 kb/s\n",
      "  Stream #17:0[0x1](und): Video: h264 (High) (avc1 / 0x31637661), yuv420p(tv, bt709, progressive), 1280x720 [SAR 1:1 DAR 16:9], 1104 kb/s, 23.98 fps, 23.98 tbr, 24k tbn, start 0.041000 (default)\n",
      "    Metadata:\n",
      "      handler_name    : ISO Media file produced by Google Inc.\n",
      "      vendor_id       : [0][0][0][0]\n",
      "      encoder         : Lavc62.11.100 libx264\n",
      "Input #18, mov,mp4,m4a,3gp,3g2,mj2, from '/Users/sangdo/Downloads/movie-top-list/trailers/tom_cruise/JGPl86DBNNs.mp4':\n",
      "  Metadata:\n",
      "    major_brand     : isom\n",
      "    minor_version   : 512\n",
      "    compatible_brands: isomiso2avc1mp41\n",
      "    encoder         : Lavf62.3.100\n",
      "  Duration: 00:00:20.02, start: 0.041000, bitrate: 971 kb/s\n",
      "  Stream #18:0[0x1](und): Video: h264 (High) (avc1 / 0x31637661), yuv420p(tv, bt709, progressive), 1280x720 [SAR 1:1 DAR 16:9], 969 kb/s, 23.98 fps, 23.98 tbr, 24k tbn, start 0.041000 (default)\n",
      "    Metadata:\n",
      "      handler_name    : ISO Media file produced by Google Inc.\n",
      "      vendor_id       : [0][0][0][0]\n",
      "      encoder         : Lavc62.11.100 libx264\n",
      "Input #19, mov,mp4,m4a,3gp,3g2,mj2, from '/Users/sangdo/Downloads/movie-top-list/trailers/tom_cruise/EDGYVFZxsXQ.mp4':\n",
      "  Metadata:\n",
      "    major_brand     : isom\n",
      "    minor_version   : 512\n",
      "    compatible_brands: isomiso2avc1mp41\n",
      "    encoder         : Lavf62.3.100\n",
      "  Duration: 00:00:20.02, start: 0.041000, bitrate: 706 kb/s\n",
      "  Stream #19:0[0x1](und): Video: h264 (High) (avc1 / 0x31637661), yuv420p(tv, bt709, progressive), 1280x720 [SAR 1:1 DAR 16:9], 703 kb/s, 23.98 fps, 23.98 tbr, 24k tbn, start 0.041000 (default)\n",
      "    Metadata:\n",
      "      handler_name    : ISO Media file produced by Google Inc.\n",
      "      vendor_id       : [0][0][0][0]\n",
      "      encoder         : Lavc62.11.100 libx264\n",
      "Input #20, mov,mp4,m4a,3gp,3g2,mj2, from '/Users/sangdo/Downloads/movie-top-list/trailers/tom_cruise/jbvzQLMqfH0.mp4':\n",
      "  Metadata:\n",
      "    major_brand     : isom\n",
      "    minor_version   : 512\n",
      "    compatible_brands: isomiso2avc1mp41\n",
      "    encoder         : Lavf62.3.100\n",
      "  Duration: 00:00:20.00, start: 0.000000, bitrate: 2191 kb/s\n",
      "  Stream #20:0[0x1](und): Video: h264 (High) (avc1 / 0x31637661), yuv420p(tv, bt709, progressive), 1280x544 [SAR 1:1 DAR 40:17], 2188 kb/s, 24 fps, 24 tbr, 12288 tbn (default)\n",
      "    Metadata:\n",
      "      handler_name    : ISO Media file produced by Google Inc.\n",
      "      vendor_id       : [0][0][0][0]\n",
      "      encoder         : Lavc62.11.100 libx264\n",
      "Input #21, mov,mp4,m4a,3gp,3g2,mj2, from '/Users/sangdo/Downloads/movie-top-list/trailers/tom_cruise/Q-oxhxD32MM.mp4':\n",
      "  Metadata:\n",
      "    major_brand     : isom\n",
      "    minor_version   : 512\n",
      "    compatible_brands: isomiso2avc1mp41\n",
      "    encoder         : Lavf62.3.100\n",
      "  Duration: 00:00:20.02, start: 0.000000, bitrate: 1064 kb/s\n",
      "  Stream #21:0[0x1](und): Video: h264 (High) (avc1 / 0x31637661), yuv420p(tv, bt709, progressive), 1280x720 [SAR 1:1 DAR 16:9], 1061 kb/s, 29.97 fps, 29.97 tbr, 30k tbn (default)\n",
      "    Metadata:\n",
      "      handler_name    : ISO Media file produced by Google Inc.\n",
      "      vendor_id       : [0][0][0][0]\n",
      "      encoder         : Lavc62.11.100 libx264\n",
      "Input #22, mov,mp4,m4a,3gp,3g2,mj2, from '/Users/sangdo/Downloads/movie-top-list/trailers/tom_cruise/XmIIgE7eSak.mp4':\n",
      "  Metadata:\n",
      "    major_brand     : isom\n",
      "    minor_version   : 512\n",
      "    compatible_brands: isomiso2avc1mp41\n",
      "    encoder         : Lavf62.3.100\n",
      "  Duration: 00:00:20.02, start: 0.041000, bitrate: 1121 kb/s\n",
      "  Stream #22:0[0x1](und): Video: h264 (High) (avc1 / 0x31637661), yuv420p(tv, bt709, progressive), 1280x534 [SAR 1:1 DAR 640:267], 1118 kb/s, 23.98 fps, 23.98 tbr, 24k tbn, start 0.041000 (default)\n",
      "    Metadata:\n",
      "      handler_name    : ISO Media file produced by Google Inc.\n",
      "      vendor_id       : [0][0][0][0]\n",
      "      encoder         : Lavc62.11.100 libx264\n",
      "Input #23, mov,mp4,m4a,3gp,3g2,mj2, from '/Users/sangdo/Downloads/movie-top-list/trailers/tom_cruise/vw61gCe2oqI.mp4':\n",
      "  Metadata:\n",
      "    major_brand     : isom\n",
      "    minor_version   : 512\n",
      "    compatible_brands: isomiso2avc1mp41\n",
      "    encoder         : Lavf62.3.100\n",
      "  Duration: 00:00:20.02, start: 0.041000, bitrate: 1472 kb/s\n",
      "  Stream #23:0[0x1](und): Video: h264 (High) (avc1 / 0x31637661), yuv420p(tv, bt709, progressive), 1280x720 [SAR 1:1 DAR 16:9], 1469 kb/s, 23.98 fps, 23.98 tbr, 24k tbn, start 0.041000 (default)\n",
      "    Metadata:\n",
      "      handler_name    : ISO Media file produced by Google Inc.\n",
      "      vendor_id       : [0][0][0][0]\n",
      "      encoder         : Lavc62.11.100 libx264\n",
      "Input #24, mov,mp4,m4a,3gp,3g2,mj2, from '/Users/sangdo/Downloads/movie-top-list/trailers/tom_cruise/gOW_azQbOjw.mp4':\n",
      "  Metadata:\n",
      "    major_brand     : isom\n",
      "    minor_version   : 512\n",
      "    compatible_brands: isomiso2avc1mp41\n",
      "    encoder         : Lavf62.3.100\n",
      "  Duration: 00:00:20.02, start: 0.041000, bitrate: 1037 kb/s\n",
      "  Stream #24:0[0x1](und): Video: h264 (High) (avc1 / 0x31637661), yuv420p(tv, bt709, progressive), 1280x720 [SAR 1:1 DAR 16:9], 1034 kb/s, 23.98 fps, 23.98 tbr, 24k tbn, start 0.041000 (default)\n",
      "    Metadata:\n",
      "      handler_name    : ISO Media file produced by Google Inc.\n",
      "      vendor_id       : [0][0][0][0]\n",
      "      encoder         : Lavc62.11.100 libx264\n",
      "Input #25, mov,mp4,m4a,3gp,3g2,mj2, from '/Users/sangdo/Downloads/movie-top-list/trailers/tom_cruise/aRwrdbcAh2s.mp4':\n",
      "  Metadata:\n",
      "    major_brand     : isom\n",
      "    minor_version   : 512\n",
      "    compatible_brands: isomiso2avc1mp41\n",
      "    encoder         : Lavf62.3.100\n",
      "  Duration: 00:00:20.02, start: 0.041000, bitrate: 664 kb/s\n",
      "  Stream #25:0[0x1](und): Video: h264 (High) (avc1 / 0x31637661), yuv420p(tv, bt709, progressive), 1280x720 [SAR 1:1 DAR 16:9], 662 kb/s, 23.98 fps, 23.98 tbr, 24k tbn, start 0.041000 (default)\n",
      "    Metadata:\n",
      "      handler_name    : ISO Media file produced by Google Inc.\n",
      "      vendor_id       : [0][0][0][0]\n",
      "      encoder         : Lavc62.11.100 libx264\n",
      "Input #26, mov,mp4,m4a,3gp,3g2,mj2, from '/Users/sangdo/Downloads/movie-top-list/trailers/tom_cruise/IjHgzkQM2Sg.mp4':\n",
      "  Metadata:\n",
      "    major_brand     : isom\n",
      "    minor_version   : 512\n",
      "    compatible_brands: isomiso2avc1mp41\n",
      "    encoder         : Lavf62.3.100\n",
      "  Duration: 00:00:20.02, start: 0.041000, bitrate: 1839 kb/s\n",
      "  Stream #26:0[0x1](und): Video: h264 (High) (avc1 / 0x31637661), yuv420p(tv, bt709, progressive), 1280x720 [SAR 1:1 DAR 16:9], 1837 kb/s, 23.98 fps, 23.98 tbr, 24k tbn, start 0.041000 (default)\n",
      "    Metadata:\n",
      "      handler_name    : ISO Media file produced by Google Inc.\n",
      "      vendor_id       : [0][0][0][0]\n",
      "      encoder         : Lavc62.11.100 libx264\n",
      "Input #27, mov,mp4,m4a,3gp,3g2,mj2, from '/Users/sangdo/Downloads/movie-top-list/trailers/tom_cruise/AEBIJRAkujM.mp4':\n",
      "  Metadata:\n",
      "    major_brand     : isom\n",
      "    minor_version   : 512\n",
      "    compatible_brands: isomiso2avc1mp41\n",
      "    encoder         : Lavf62.3.100\n",
      "  Duration: 00:00:20.02, start: 0.041000, bitrate: 1515 kb/s\n",
      "  Stream #27:0[0x1](und): Video: h264 (High) (avc1 / 0x31637661), yuv420p(tv, bt709, progressive), 1280x720 [SAR 1:1 DAR 16:9], 1513 kb/s, 23.98 fps, 23.98 tbr, 24k tbn, start 0.041000 (default)\n",
      "    Metadata:\n",
      "      handler_name    : ISO Media file produced by Google Inc.\n",
      "      vendor_id       : [0][0][0][0]\n",
      "      encoder         : Lavc62.11.100 libx264\n",
      "Input #28, mov,mp4,m4a,3gp,3g2,mj2, from '/Users/sangdo/Downloads/movie-top-list/trailers/tom_cruise/giXco2jaZ_4.mp4':\n",
      "  Metadata:\n",
      "    major_brand     : isom\n",
      "    minor_version   : 512\n",
      "    compatible_brands: isomiso2avc1mp41\n",
      "    encoder         : Lavf62.3.100\n",
      "  Duration: 00:00:20.02, start: 0.041000, bitrate: 939 kb/s\n",
      "  Stream #28:0[0x1](und): Video: h264 (High) (avc1 / 0x31637661), yuv420p(tv, bt709, progressive), 1280x720 [SAR 1:1 DAR 16:9], 937 kb/s, 23.98 fps, 23.98 tbr, 24k tbn, start 0.041000 (default)\n",
      "    Metadata:\n",
      "      handler_name    : ISO Media file produced by Google Inc.\n",
      "      vendor_id       : [0][0][0][0]\n",
      "      encoder         : Lavc62.11.100 libx264\n",
      "Input #29, mov,mp4,m4a,3gp,3g2,mj2, from '/Users/sangdo/Downloads/movie-top-list/trailers/tom_cruise/avz06PDqDbM.mp4':\n",
      "  Metadata:\n",
      "    major_brand     : isom\n",
      "    minor_version   : 512\n",
      "    compatible_brands: isomiso2avc1mp41\n",
      "    encoder         : Lavf62.3.100\n",
      "  Duration: 00:00:20.02, start: 0.041000, bitrate: 2222 kb/s\n",
      "  Stream #29:0[0x1](und): Video: h264 (High) (avc1 / 0x31637661), yuv420p(tv, bt709, progressive), 1280x720 [SAR 1:1 DAR 16:9], 2219 kb/s, 23.98 fps, 23.98 tbr, 24k tbn, start 0.041000 (default)\n",
      "    Metadata:\n",
      "      handler_name    : ISO Media file produced by Google Inc.\n",
      "      vendor_id       : [0][0][0][0]\n",
      "      encoder         : Lavc62.11.100 libx264\n",
      "Input #30, mov,mp4,m4a,3gp,3g2,mj2, from '/Users/sangdo/Downloads/movie-top-list/trailers/tom_cruise/fsQgc9pCyDU.mp4':\n",
      "  Metadata:\n",
      "    major_brand     : isom\n",
      "    minor_version   : 512\n",
      "    compatible_brands: isomiso2avc1mp41\n",
      "    encoder         : Lavf62.3.100\n",
      "  Duration: 00:00:20.02, start: 0.041000, bitrate: 1307 kb/s\n",
      "  Stream #30:0[0x1](und): Video: h264 (High) (avc1 / 0x31637661), yuv420p(tv, bt709, progressive), 1280x720 [SAR 1:1 DAR 16:9], 1305 kb/s, 23.98 fps, 23.98 tbr, 24k tbn, start 0.041000 (default)\n",
      "    Metadata:\n",
      "      handler_name    : ISO Media file produced by Google Inc.\n",
      "      vendor_id       : [0][0][0][0]\n",
      "      encoder         : Lavc62.11.100 libx264\n",
      "Stream mapping:\n",
      "  Stream #0:0 (png) -> scale:default\n",
      "  Stream #1:0 (h264) -> scale:default\n",
      "  Stream #2:0 (h264) -> scale:default\n",
      "  Stream #3:0 (h264) -> scale:default\n",
      "  Stream #4:0 (h264) -> scale:default\n",
      "  Stream #5:0 (h264) -> scale:default\n",
      "  Stream #6:0 (h264) -> scale:default\n",
      "  Stream #7:0 (h264) -> scale:default\n",
      "  Stream #8:0 (h264) -> scale:default\n",
      "  Stream #9:0 (h264) -> scale:default\n",
      "  Stream #10:0 (h264) -> scale:default\n",
      "  Stream #11:0 (h264) -> scale:default\n",
      "  Stream #12:0 (h264) -> scale:default\n",
      "  Stream #13:0 (h264) -> scale:default\n",
      "  Stream #14:0 (h264) -> scale:default\n",
      "  Stream #15:0 (h264) -> scale:default\n",
      "  Stream #16:0 (h264) -> scale:default\n",
      "  Stream #17:0 (h264) -> scale:default\n",
      "  Stream #18:0 (h264) -> scale:default\n",
      "  Stream #19:0 (h264) -> scale:default\n",
      "  Stream #20:0 (h264) -> scale:default\n",
      "  Stream #21:0 (h264) -> scale:default\n",
      "  Stream #22:0 (h264) -> scale:default\n",
      "  Stream #23:0 (h264) -> scale:default\n",
      "  Stream #24:0 (h264) -> scale:default\n",
      "  Stream #25:0 (h264) -> scale:default\n",
      "  Stream #26:0 (h264) -> scale:default\n",
      "  Stream #27:0 (h264) -> scale:default\n",
      "  Stream #28:0 (h264) -> scale:default\n",
      "  Stream #29:0 (h264) -> scale:default\n",
      "  Stream #30:0 (h264) -> scale:default\n",
      "  crop:default -> Stream #0:0 (libx264)\n",
      "Press [q] to stop, [?] for help\n",
      "[libx264 @ 0x8831ea300] using cpu capabilities: ARMv8 NEON DotProd I8MM\n",
      "[libx264 @ 0x8831ea300] profile Constrained Baseline, level 4.0, 4:2:0, 8-bit\n",
      "[libx264 @ 0x8831ea300] 264 - core 165 r3222 b35605a - H.264/MPEG-4 AVC codec - Copyleft 2003-2025 - http://www.videolan.org/x264.html - options: cabac=0 ref=1 deblock=0:0:0 analyse=0:0 me=dia subme=0 psy=1 psy_rd=1.00:0.00 mixed_ref=0 me_range=16 chroma_me=1 trellis=0 8x8dct=0 cqm=0 deadzone=21,11 fast_pskip=1 chroma_qp_offset=0 threads=15 lookahead_threads=2 sliced_threads=0 nr=0 decimate=1 interlaced=0 bluray_compat=0 constrained_intra=0 bframes=0 weightp=0 keyint=250 keyint_min=25 scenecut=0 intra_refresh=0 rc=crf mbtree=0 crf=23.0 qcomp=0.60 qpmin=0 qpmax=69 qpstep=4 ip_ratio=1.40 aq=0\n",
      "Output #0, mp4, to '/Users/sangdo/Downloads/movie-top-list/long_video/tom_cruise.mp4':\n",
      "  Metadata:\n",
      "    encoder         : Lavf62.3.100\n",
      "  Stream #0:0: Video: h264 (avc1 / 0x31637661), yuv420p(tv, bt709/unknown/unknown, progressive), 1920x1080, q=2-31, 30 fps, 15360 tbn\n",
      "    Metadata:\n",
      "      encoder         : Lavc62.11.100 libx264\n",
      "    Side data:\n",
      "      cpb: bitrate max/min/avg: 0/0/0 buffer size: 0 vbv_delay: N/A\n",
      "[fc#0 @ 0x883008000] [vo0->#0:0 @ 0x882cd8700] More than 1000 frames duplicateds/s dup=1001 drop=0 speed=1.91x elapsed=0:01:44.41    \n",
      "[mp4 @ 0x882861b80] Starting second pass: moving the moov atom to the beginning of the file drop=0 speed=2.01x elapsed=0:04:03.58    \n",
      "[out#0/mp4 @ 0x882c946c0] video:238790KiB audio:0KiB subtitle:0KiB other streams:0KiB global headers:0KiB muxing overhead: 0.025990%\n",
      "frame=14700 fps= 60 q=-1.0 Lsize=  238852KiB time=00:08:10.00 bitrate=3993.2kbits/s dup=2450 drop=0 speed=2.01x elapsed=0:04:03.99    \n",
      "[libx264 @ 0x8831ea300] frame I:59    Avg QP:16.36  size: 76342\n",
      "[libx264 @ 0x8831ea300] frame P:14641 Avg QP:19.01  size: 16393\n",
      "[libx264 @ 0x8831ea300] mb I  I16..4: 100.0%  0.0%  0.0%\n",
      "[libx264 @ 0x8831ea300] mb P  I16..4:  8.2%  0.0%  0.0%  P16..4: 16.8%  0.0%  0.0%  0.0%  0.0%    skip:75.0%\n",
      "[libx264 @ 0x8831ea300] coded y,uvDC,uvAC intra: 22.2% 31.0% 9.6% inter: 7.2% 6.7% 0.4%\n",
      "[libx264 @ 0x8831ea300] i16 v,h,dc,p: 48% 26%  9% 18%\n",
      "[libx264 @ 0x8831ea300] i8c dc,h,v,p: 53% 20% 19%  8%\n",
      "[libx264 @ 0x8831ea300] kb/s:3992.16\n"
     ]
    }
   ],
   "source": [
    "def put_video_inside_video(actor_key, trailer_ids):\n",
    "    inputs = \"\"\n",
    "    filters = \"\"\n",
    "\n",
    "    # build ffmpeg input list\n",
    "    i = 0\n",
    "    for trailer_id in trailer_ids:\n",
    "        filepath = TRAILER_FOLDER + actor_key + \"/\"+trailer_id+\".mp4\"\n",
    "        inputs += f\"-i {filepath} \"\n",
    "\n",
    "        x = first_video_x + i * CLIP_W  #position of the clip\n",
    "        trigger_x = VIEWPORT_WIDTH * 1 / 2    #start playing while reach to the center of the screen\n",
    "\n",
    "        delay = max((x - trigger_x) / SCROLL_SPEED, 0)\n",
    "        play_time = 20\n",
    "\n",
    "        filters += (\n",
    "            f\"[{i+1}:v]\"\n",
    "            f\"scale={CLIP_W}:{CLIP_H},\"\n",
    "            f\"trim=duration={play_time},\"\n",
    "            f\"tpad=start_duration={delay}:start_mode=clone,\"\n",
    "            f\"tpad=stop_duration={VIDEO_DURATION + BUFFER_END_DURATION}:stop_mode=clone\"\n",
    "            f\"[v{i}];\"\n",
    "        )\n",
    "\n",
    "        i = i + 1\n",
    "\n",
    "    # create base canvas\n",
    "    filters += f\"[0:v]scale={CANVAS_WIDTH}:{CANVAS_HEIGHT}[base];\"\n",
    "\n",
    "    last = \"base\"\n",
    "\n",
    "    # overlay clips in position\n",
    "    i = 0\n",
    "    for trailer_id in trailer_ids:\n",
    "        x = CARD_W * i + first_video_x\n",
    "        filters += f\"[{last}][v{i}]overlay={x}:{firxt_video_y}:eof_action=pass[tmp{i}];\"\n",
    "        last = f\"tmp{i}\"\n",
    "        i = i + 1\n",
    "\n",
    "    # scrolling camera\n",
    "    filters += f\"[{last}]crop={VIEWPORT_WIDTH}:{VIEWPORT_HEIGHT}:x='t*{SCROLL_SPEED}':y=0[out]\"  #standard youtube landscape video size\n",
    "    output_filename = OUTPUT_LONG_VIDEO_FOLDER + actor_key + \".mp4\"\n",
    "    cmd = f'ffmpeg -loglevel error -y -loop 1 -i {BG_FILE} {inputs} -filter_complex \"{filters}\" -map \"[out]\" -t {VIDEO_DURATION + BUFFER_END_DURATION} -r 30 -c:v libx264 -preset ultrafast -crf 23 -movflags +faststart -pix_fmt yuv420p {output_filename}'\n",
    "    print(\"Running FFmpeg...\")\n",
    "    subprocess.run(cmd, shell=True)\n",
    "\n",
    "#test\n",
    "trailer_ids = get_trailer_ids(actor_name)\n",
    "# put_video_inside_video('tom_cruise', trailer_ids)    #size w 57600: 8 minutes ~ 4 minutes to produce"
   ]
  },
  {
   "cell_type": "code",
   "execution_count": 8,
   "id": "bb7aa6ac",
   "metadata": {},
   "outputs": [],
   "source": [
    "FONT_PATH = \"font/Inter.ttf\"\n",
    "\n",
    "CARD_DETAILS = {\n",
    "    'title': {\n",
    "        'position': (35, 475),\n",
    "        'font_size': 50,\n",
    "        'font_color': 'white'\n",
    "    },\n",
    "    'budget': {\n",
    "        'position': (40, 660),\n",
    "        'font_size': 50,\n",
    "        'font_color': 'white'\n",
    "    },\n",
    "    'year': { #revenue\n",
    "        'position': (295, 650),\n",
    "        'font_size': 50,\n",
    "        'font_color': 'white'   #004aad\n",
    "    },\n",
    "    'box_office': {\n",
    "        'position': (470, 660),\n",
    "        'font_size': 50,\n",
    "        'font_color': 'white'\n",
    "    },\n",
    "    'paycheck': {\n",
    "        'position': (370, 755),\n",
    "        'font_size': 50,\n",
    "        'font_color': 'white'   #5d18eb\n",
    "    },\n",
    "    'coin': {\n",
    "        'position': (35, 475),\n",
    "        'font_size': 50,\n",
    "        'font_color': 'white'\n",
    "    }\n",
    "}\n",
    "#clone new background image for the video\n",
    "def create_bg_image():\n",
    "    # tb_paycheck = db['tb_paycheck']\n",
    "    # data = tb_paycheck.find({'actor': actor_name}).sort({'year':1}) #.limit(4)\n",
    "    #put data into each card\n",
    "    base = Image.open(PROJECT_FOLDER + 'timeline_template/empty_card_666x1080.png').convert(\"RGBA\")\n",
    "    draw = ImageDraw.Draw(base)\n",
    "    #draw salary range\n",
    "    draw_wrapped_text(\n",
    "        draw=draw,\n",
    "        position= CARD_DETAILS['title']['position'],\n",
    "        text= 'abc',\n",
    "        font= ImageFont.truetype(FONT_PATH, CARD_DETAILS['title']['font_size']),\n",
    "        max_width= 600,\n",
    "        fill= (255, 255, 255)   #text color\n",
    "    )\n",
    "\n",
    "    base.convert(\"RGB\").save(\"new_card.png\", \"PNG\")\n",
    "###\n",
    "# create_bg_image()"
   ]
  },
  {
   "cell_type": "code",
   "execution_count": null,
   "id": "1ecd3c1e",
   "metadata": {},
   "outputs": [],
   "source": []
  }
 ],
 "metadata": {
  "kernelspec": {
   "display_name": "Python 3",
   "language": "python",
   "name": "python3"
  },
  "language_info": {
   "codemirror_mode": {
    "name": "ipython",
    "version": 3
   },
   "file_extension": ".py",
   "mimetype": "text/x-python",
   "name": "python",
   "nbconvert_exporter": "python",
   "pygments_lexer": "ipython3",
   "version": "3.10.19"
  }
 },
 "nbformat": 4,
 "nbformat_minor": 5
}
